<?xml version="1.0" standalone="no"?>
<!DOCTYPE svg PUBLIC "-//W3C//DTD SVG 1.1//EN" "http://www.w3.org/Graphics/SVG/1.1/DTD/svg11.dtd" >
<svg xmlns="http://www.w3.org/2000/svg" xmlns:xlink="http://www.w3.org/1999/xlink" version="1.1">
<metadata>
Created by FontForge 20201107 at Thu Apr 20 21:20:42 2023
 By Dima
Copyright (c) SimpleDevDima
</metadata>
<defs>
<font id="Editor-Light" horiz-adv-x="448" >
  <font-face 
    font-family="Editor Light"
    font-weight="300"
    font-stretch="normal"
    units-per-em="512"
    panose-1="2 0 4 3 0 0 0 0 0 0"
    ascent="448"
    descent="-64"
    bbox="-0.368421 -64.3684 640.368 448"
    underline-thickness="25"
    underline-position="-49"
    unicode-range="U+F000-F018"
  />
    <missing-glyph />
    <glyph glyph-name="align-left" unicode="&#xf000;" 
d="M16 400q-15 -1 -16 -16q1 -15 16 -16h256q15 1 16 16q-1 15 -16 16h-256v0zM16 272q-15 -1 -16 -16q1 -15 16 -16h416q15 1 16 16q-1 15 -16 16h-416v0zM0 128q1 -15 16 -16h256q15 1 16 16q-1 15 -16 16h-256q-15 -1 -16 -16v0zM16 16q-15 -1 -16 -16q1 -15 16 -16h416
q15 1 16 16q-1 15 -16 16h-416v0z" />
    <glyph glyph-name="align-center" unicode="&#xf001;" 
d="M112 400q-15 -1 -16 -16q1 -15 16 -16h224q15 1 16 16q-1 15 -16 16h-224v0zM16 272q-15 -1 -16 -16q1 -15 16 -16h416q15 1 16 16q-1 15 -16 16h-416v0zM96 128q1 -15 16 -16h224q15 1 16 16q-1 15 -16 16h-224q-15 -1 -16 -16v0zM16 16q-15 -1 -16 -16q1 -15 16 -16
h416q15 1 16 16q-1 15 -16 16h-416v0z" />
    <glyph glyph-name="align-right" unicode="&#xf002;" 
d="M432 400q15 -1 16 -16q-1 -15 -16 -16h-256q-15 1 -16 16q1 15 16 16h256v0zM432 272q15 -1 16 -16q-1 -15 -16 -16h-416q-15 1 -16 16q1 15 16 16h416v0zM448 128q-1 -15 -16 -16h-256q-15 1 -16 16q1 15 16 16h256q15 -1 16 -16v0zM432 16q15 -1 16 -16q-1 -15 -16 -16
h-416q-15 1 -16 16q1 15 16 16h416v0z" />
    <glyph glyph-name="align-justify" unicode="&#xf003;" 
d="M16 400q-15 -1 -16 -16q1 -15 16 -16h416q15 1 16 16q-1 15 -16 16h-416v0zM0 256q1 -15 16 -16h416q15 1 16 16q-1 15 -16 16h-416q-15 -1 -16 -16v0zM16 144q-15 -1 -16 -16q1 -15 16 -16h416q15 1 16 16q-1 15 -16 16h-416v0zM16 16q-15 -1 -16 -16q1 -15 16 -16h416
q15 1 16 16q-1 15 -16 16h-416v0z" />
    <glyph glyph-name="bold" unicode="&#xf004;" horiz-adv-x="384" 
d="M0 400q1 15 16 16h32h32h152q51 -1 85 -35t35 -85q-2 -60 -47 -95q35 -13 57 -43q21 -30 22 -70q-1 -51 -35 -85t-85 -35h-184h-32h-32q-15 1 -16 16q1 15 16 16h16v192v192h-16q-15 1 -16 16v0zM64 0h16h184q37 1 62 26t26 62q-1 37 -26 62t-62 26h-32h-168v-176v0z
M64 208h168q37 1 62 26t26 62q-1 37 -26 62t-62 26h-152h-16v-176v0z" />
    <glyph glyph-name="italic" unicode="&#xf005;" horiz-adv-x="384" 
d="M128 400q1 15 16 16h224q15 -1 16 -16q-1 -15 -16 -16h-85l-148 -384h105q15 -1 16 -16q-1 -15 -16 -16h-224q-15 1 -16 16q1 15 16 16h85l148 384h-105q-15 1 -16 16v0z" />
    <glyph glyph-name="underline" unicode="&#xf006;" 
d="M0 400q1 15 16 16h128q15 -1 16 -16q-1 -15 -16 -16h-48v-160q1 -54 37 -91q37 -36 91 -37q54 1 91 37q36 37 37 91v160h-48q-15 1 -16 16q1 15 16 16h128q15 -1 16 -16q-1 -15 -16 -16h-48v-160q-2 -68 -47 -113t-113 -47q-68 2 -113 47t-47 113v160h-48q-15 1 -16 16v0
zM0 -16q1 15 16 16h416q15 -1 16 -16q-1 -15 -16 -16h-416q-15 1 -16 16v0z" />
    <glyph glyph-name="link" unicode="&#xf007;" horiz-adv-x="640" 
d="M592 192q37 39 37 90v0q0 52 -37 91q-40 37 -91 37t-90 -37l-23 -23q-9 -11 0 -22q11 -10 23 0l22 22q30 29 68 29t68 -29q28 -29 28 -68q0 -38 -28 -67l-125 -125q-29 -28 -67 -28q-39 0 -68 28q-27 28 -28 64q-2 37 23 67l5 6q9 12 -1 22q-12 9 -23 -1l-5 -6
q-33 -40 -31 -89q1 -48 37 -85q39 -38 90 -38t91 38l125 124v0zM49 192q-38 -39 -38 -91v0q0 -51 38 -90q39 -38 90 -38t91 38l22 23q9 11 0 22q-11 9 -22 0l-23 -22q-30 -29 -68 -29t-68 29q-28 29 -28 67q0 39 28 68l125 125q29 28 67 28q39 0 68 -28q27 -28 28 -65
q2 -36 -23 -66l-5 -6q-9 -12 1 -22q12 -9 23 1l5 6q33 40 31 89q-1 48 -37 85q-40 38 -91 38t-90 -37l-124 -125v0z" />
    <glyph glyph-name="unlink" unicode="&#xf008;" horiz-adv-x="640" 
d="M26 445q-12 7 -23 -3q-8 -12 3 -23l608 -480q12 -8 23 3q8 12 -3 22l-608 481v0zM592 192q37 39 37 90v0q0 52 -37 91q-40 37 -91 37t-90 -37l-23 -23q-9 -11 0 -22q11 -10 23 0l22 22q30 29 68 29t68 -29q28 -29 28 -68q0 -38 -28 -67l-77 -77l25 -20l75 74v0zM415 36
l-34 26q-41 -2 -72 28q-22 22 -27 50l-33 26q-4 -56 37 -99q27 -26 61 -34t68 3v0zM331 294q22 -22 27 -50l33 -27q4 56 -37 100q-27 26 -61 34t-68 -3l34 -26q41 2 72 -28v0zM148 246l-25 20l-74 -74q-38 -39 -38 -91q0 -51 38 -90q39 -38 90 -38t91 38l22 23q9 11 0 22
q-11 9 -22 0l-23 -22q-30 -29 -68 -29t-68 29q-28 29 -28 67q0 39 28 68l77 77v0z" />
    <glyph glyph-name="code" unicode="&#xf009;" horiz-adv-x="640" 
d="M405 447q-14 4 -20 -10l-160 -480q-3 -14 10 -20q14 -3 20 10l160 480q4 14 -10 20v0zM172 331q-11 10 -23 1l-144 -128q-5 -5 -5 -12t5 -12l144 -128q12 -9 23 1q9 12 -1 23l-131 116l131 116q10 11 1 23v0zM468 331q-9 -12 1 -23l131 -116l-131 -116q-10 -11 -1 -23
q11 -10 23 -1l144 128q5 5 5 12t-5 12l-144 128q-12 9 -23 -1v0z" />
    <glyph glyph-name="list-ul" unicode="&#xf00a;" horiz-adv-x="512" 
d="M64 384q-14 0 -23 -9v0q-9 -9 -9 -23t9 -23t23 -9t23 9t9 23t-9 23t-23 9v0zM176 368q-15 -1 -16 -16q1 -15 16 -16h320q15 1 16 16q-1 15 -16 16h-320v0zM176 208q-15 -1 -16 -16q1 -15 16 -16h320q15 1 16 16q-1 15 -16 16h-320v0zM176 48q-15 -1 -16 -16q1 -15 16 -16
h320q15 1 16 16q-1 15 -16 16h-320v0zM96 192q0 14 -9 23v0q-9 9 -23 9t-23 -9t-9 -23t9 -23t23 -9t23 9t9 23v0zM64 64q-14 0 -23 -9v0q-9 -9 -9 -23t9 -23t23 -9t23 9t9 23t-9 23t-23 9v0z" />
    <glyph glyph-name="list-ol" unicode="&#xf00b;" horiz-adv-x="512" 
d="M32 400q1 -15 16 -16h16v-128h-32q-15 -1 -16 -16q1 -15 16 -16h96q15 1 16 16q-1 15 -16 16h-32v144q-1 15 -16 16h-32q-15 -1 -16 -16v0zM192 352q1 -15 16 -16h288q15 1 16 16q-1 15 -16 16h-288q-15 -1 -16 -16v0zM192 192q1 -15 16 -16h288q15 1 16 16q-1 15 -16 16
h-288q-15 -1 -16 -16v0zM192 32q1 -15 16 -16h288q15 1 16 16q-1 15 -16 16h-288q-15 -1 -16 -16v0zM59 124q8 8 20 8v0q11 0 19 -9q14 -19 0 -36l-86 -92q-6 -8 -3 -17q5 -10 15 -10h104q15 1 16 16q-1 15 -16 16h-67l60 65q16 17 16 39t-15 40q-17 19 -42 20t-44 -17
l-15 -16q-10 -11 0 -22q11 -10 22 0l16 15v0z" />
    <glyph glyph-name="image" unicode="&#xf00c;" horiz-adv-x="512" 
d="M64 384q-14 0 -23 -9v0q-9 -9 -9 -23v-233l68 67q12 12 28 12t28 -12l68 -67l132 131q12 12 28 12t28 -12l68 -67v169q0 14 -9 23t-23 9h-384v0zM32 73v-41q0 -14 9 -23t23 -9h41l96 96l-67 68q-6 4 -12 0l-90 -91v0zM390 228q-6 4 -12 0l-227 -228h297q14 0 23 9t9 23
v105l-90 91v0zM0 352q1 27 19 45v0q18 18 45 19h384q27 -1 45 -19t19 -45v-320q-1 -27 -19 -45t-45 -19h-384q-27 1 -45 19t-19 45v320v0zM160 304q-1 15 -16 16q-15 -1 -16 -16q1 -15 16 -16q15 1 16 16v0zM96 304q1 27 24 42q24 12 48 0q23 -15 24 -42q-1 -27 -24 -42
q-24 -12 -48 0q-23 15 -24 42v0z" />
    <glyph glyph-name="eraser" unicode="&#xf00d;" horiz-adv-x="576" 
d="M353 374q-17 14 -34 0l-111 -111l183 -183l111 111q14 17 0 34l-149 149v0zM74 129q-14 -17 0 -34l88 -88q7 -7 17 -7h122q10 0 17 7l50 50l-183 183l-111 -111v0zM296 396q18 17 40 17v0q22 0 40 -17l148 -148q17 -18 17 -40t-17 -40l-168 -168h172q15 -1 16 -16
q-1 -15 -16 -16h-224v0h-3v0h-122q-23 0 -39 16l-88 88q-17 18 -17 40t17 40l244 244v0z" />
    <glyph glyph-name="fill-drip" unicode="&#xf00e;" horiz-adv-x="576" 
d="M37 443q11 10 22 0l98 -97l64 64q22 21 51 21t51 -21l151 -151q21 -22 21 -51t-21 -51l-190 -190q-30 -29 -68 -29t-68 29l-117 117q-29 30 -29 68t29 68l103 103l-97 98q-10 11 0 22v0zM245 213l-88 88l-104 -104q-15 -16 -18 -37h397l20 20q11 12 11 28t-11 28
l-152 152q-12 11 -28 11t-28 -11l-65 -65l88 -88q10 -11 0 -22q-11 -10 -22 0v0zM39 128q5 -12 14 -21l118 -118q19 -18 45 -18q25 0 45 18l139 139h-361v0zM544 0v0v0v0v0l-1 3q0 4 -2 9q-5 12 -12 26q-8 16 -17 31q-9 -15 -17 -31q-7 -14 -12 -26q-2 -5 -2 -9l-1 -3v0v0
q0 -14 9 -23t23 -9t23 9t9 23v0zM576 0q-1 -27 -19 -45v0q-18 -18 -45 -19q-27 1 -45 19t-19 45q1 21 19 53q17 32 32 56q5 7 13 7t13 -7q15 -24 32 -56q18 -32 19 -53v0z" />
    <glyph glyph-name="copy" unicode="&#xf00f;" horiz-adv-x="512" 
d="M448 96h-160q-14 0 -23 9t-9 23v256q0 14 9 23t23 9h108q7 0 11 -5l68 -68q5 -4 5 -11v-204q0 -14 -9 -23t-23 -9v0zM498 366l-68 68q-14 14 -34 14h-108q-27 -1 -45 -19t-19 -45v-256q1 -27 19 -45t45 -19h160q27 1 45 19t19 45v204q0 20 -14 34v0zM64 320
q-27 -1 -45 -19v0q-18 -18 -19 -45v-256q1 -27 19 -45t45 -19h160q27 1 45 19t19 45v32h-32v-32q0 -14 -9 -23t-23 -9h-160q-14 0 -23 9t-9 23v256q0 14 9 23t23 9h128v32h-128v0z" />
    <glyph glyph-name="paste" unicode="&#xf010;" horiz-adv-x="512" 
d="M137 397q4 18 23 19q19 -1 24 -19q3 -12 15 -13h9q15 -1 16 -16v-16h-128v16q1 15 16 16h9q12 1 16 13v0zM160 448q-35 -2 -51 -32h-45q-27 -1 -45 -19t-19 -45v-288q1 -27 19 -45t45 -19h128v32h-128q-14 0 -23 9t-9 23v288q0 14 9 23t23 9h3q-3 -8 -3 -16v-16
q0 -14 9 -23t23 -9h112q18 24 48 30v1v1v16q0 8 -3 16h3q14 0 23 -9t9 -23h32q-1 27 -19 45t-45 19h-45q-16 30 -51 32v0zM448 -32h-160q-14 0 -23 9t-9 23v256q0 14 9 23t23 9h108q7 0 11 -5l68 -68q5 -4 5 -11v-204q0 -14 -9 -23t-23 -9v0zM498 238l-68 68q-14 14 -34 14
h-108q-27 -1 -45 -19t-19 -45v-256q1 -27 19 -45t45 -19h160q27 1 45 19t19 45v204q0 20 -14 34v0z" />
    <glyph glyph-name="preview" unicode="&#xf011;" horiz-adv-x="384" 
d="M240 128q-1 36 -32 55q-32 18 -64 0q-31 -19 -32 -55q1 -36 32 -55q32 -18 64 0q31 19 32 55v0zM232 50q-24 -17 -56 -18q-41 1 -68 28t-28 68q1 41 28 68t68 28q41 -1 68 -28t28 -68q-1 -32 -18 -56l45 -45q10 -11 0 -22q-11 -10 -22 0l-45 45v0zM352 0v256h-112
q-20 1 -34 14q-13 14 -14 34v112h-128q-14 0 -23 -9t-9 -23v-384q0 -14 9 -23t23 -9h256q14 0 23 9t9 23v0zM352 288q-2 4 -5 7l-116 116q-3 3 -7 4v-111q1 -15 16 -16h112v0zM0 384q1 27 19 45v0q18 18 45 19h156q20 0 34 -14l116 -116q14 -14 14 -34v-284q-1 -27 -19 -45
t-45 -19h-256q-27 1 -45 19t-19 45v384v0z" />
    <glyph glyph-name="redo" unicode="&#xf013;" horiz-adv-x="512" 
d="M464 256q15 1 16 16v128q-1 15 -16 16q-15 -1 -16 -16v-93q-30 50 -80 79t-112 30q-63 -1 -113 -31q-51 -29 -80 -80q-30 -50 -31 -113q1 -63 31 -113q29 -51 80 -80q50 -30 113 -31q61 1 110 29t80 76q4 8 0 15q-4 8 -14 8q-9 0 -15 -8q-26 -40 -68 -64q-42 -23 -93 -24
q-82 2 -136 56t-56 136q2 82 56 136t136 56q54 -1 97 -26q44 -26 69 -70h-86q-15 -1 -16 -16q1 -15 16 -16h128v0z" />
    <glyph glyph-name="undo" unicode="&#xf012;" horiz-adv-x="512" 
d="M48 256q-15 1 -16 16v128q1 15 16 16q15 -1 16 -16v-93q30 50 80 79t112 30q63 -1 113 -31q51 -29 80 -80q30 -50 31 -113q-1 -63 -31 -113q-29 -51 -80 -80q-50 -30 -113 -31q-61 1 -110 29t-80 76q-4 8 0 15q4 8 14 8q9 0 15 -8q26 -40 68 -64q42 -23 93 -24
q82 2 136 56t56 136q-2 82 -56 136t-136 56q-54 -1 -97 -26q-44 -26 -69 -70h86q15 -1 16 -16q-1 -15 -16 -16h-128v0z" />
    <glyph glyph-name="quote" unicode="&#xf014;" 
d="M0 240q1 48 33 79v0q31 32 79 33h32q15 -1 16 -16q-1 -15 -16 -16h-32q-34 -1 -57 -23q-22 -23 -23 -57v-25q14 9 32 9h64q27 -1 45 -19t19 -45v-64q-1 -27 -19 -45t-45 -19h-64q-27 1 -45 19t-19 45v32v32v80v0zM32 160v-32v-32q0 -14 9 -23t23 -9h64q14 0 23 9t9 23v64
q0 14 -9 23t-23 9h-64q-14 0 -23 -9t-9 -23v0zM384 192h-64q-14 0 -23 -9t-9 -23v-32v-32q0 -14 9 -23t23 -9h64q14 0 23 9t9 23v64q0 14 -9 23t-23 9v0zM256 128v32v80q1 48 33 79q31 32 79 33h32q15 -1 16 -16q-1 -15 -16 -16h-32q-34 -1 -57 -23q-22 -23 -23 -57v-25
q14 9 32 9h64q27 -1 45 -19t19 -45v-64q-1 -27 -19 -45t-45 -19h-64q-27 1 -45 19t-19 45v32v0z" />
    <glyph glyph-name="header" unicode="&#xf015;" 
d="M0 400q1 15 16 16h64h64q15 -1 16 -16q-1 -15 -16 -16h-48v-160h256v160h-48q-15 1 -16 16q1 15 16 16h64h64q15 -1 16 -16q-1 -15 -16 -16h-48v-176v-208h48q15 -1 16 -16q-1 -15 -16 -16h-128q-15 1 -16 16q1 15 16 16h48v192h-256v-192h48q15 -1 16 -16
q-1 -15 -16 -16h-128q-15 1 -16 16q1 15 16 16h48v208v176h-48q-15 1 -16 16v0z" />
    <glyph glyph-name="save" unicode="&#xf016;" 
d="M32 352q0 14 9 23v0q9 9 23 9v-96q0 -14 9 -23t23 -9h192q14 0 23 9t9 23v94q7 -2 12 -7l75 -75q9 -9 9 -23v-245q0 -14 -9 -23t-23 -9h-320q-14 0 -23 9t-9 23v320v0zM96 384h192v-96h-192v96v0zM0 352v-320q1 -27 19 -45t45 -19h320q27 1 45 19t19 45v245q0 27 -19 46
l-74 74q-19 19 -46 19h-245q-27 -1 -45 -19t-19 -45v0zM272 128q-1 -27 -24 -42q-24 -12 -48 0q-23 15 -24 42q1 27 24 42q24 12 48 0q23 -15 24 -42v0zM224 208q-45 -1 -69 -40q-22 -40 0 -80q24 -39 69 -40q45 1 69 40q22 40 0 80q-24 39 -69 40v0z" />
    <glyph glyph-name="text-size" unicode="&#xf017;" horiz-adv-x="640" 
d="M32 416q-14 0 -23 -9v0q-9 -9 -9 -23v-64q1 -15 16 -16q15 1 16 16v64h144v-384h-64q-15 -1 -16 -16q1 -15 16 -16h160q15 1 16 16q-1 15 -16 16h-64v384h144v-64q1 -15 16 -16q15 1 16 16v64q0 14 -9 23t-23 9h-320v0zM352 224q-14 0 -23 -9v0q-9 -9 -9 -23v-32
q1 -15 16 -16q15 1 16 16v32h112v-192h-48q-15 -1 -16 -16q1 -15 16 -16h128q15 1 16 16q-1 15 -16 16h-48v192h112v-32q1 -15 16 -16q15 1 16 16v32q0 14 -9 23t-23 9h-128h-128v0z" />
    <glyph glyph-name="video" unicode="&#xf018;" horiz-adv-x="576" 
d="M64 352q-14 0 -23 -9v0q-9 -9 -9 -23v-256q0 -14 9 -23t23 -9h256q14 0 23 9t9 23v256q0 14 -9 23t-23 9h-256v0zM0 320q1 27 19 45v0q18 18 45 19h256q27 -1 45 -19t19 -45v-47v-162v-47q-1 -27 -19 -45t-45 -19h-256q-27 1 -45 19t-19 45v256v0zM519 37l-103 57v36
l119 -65q1 -1 3 -1q5 0 6 6v244q-1 5 -6 6q-2 0 -3 -1l-119 -65v36l103 57q9 5 19 5q16 0 27 -11t11 -27v-244q0 -16 -11 -27t-27 -11q-10 0 -19 5v0z" />
  </font>
</defs>
</svg>
